<?xml version="1.0" encoding="UTF-8"?>
<!DOCTYPE svg PUBLIC "-//W3C//DTD SVG 1.1//EN" "http://www.w3.org/Graphics/SVG/1.1/DTD/svg11.dtd">
<svg version="1.1" xmlns="http://www.w3.org/2000/svg" xmlns:xlink="http://www.w3.org/1999/xlink" x="0" y="0" width="320" height="240" viewBox="0, 0, 320, 240">
  <g id="Layer_1">
    <g>
      <g>
        <path d="M267.254,70.278 C249.86,70.278 235.711,56.129 235.711,38.735 C235.711,21.342 249.86,7.192 267.254,7.192 C284.647,7.192 298.797,21.342 298.797,38.735 C298.797,56.129 284.647,70.278 267.254,70.278 L267.254,70.278 z" fill="#CBCBCB"/>
        <path d="M267.254,70.278 C249.86,70.278 235.711,56.129 235.711,38.735 C235.711,21.342 249.86,7.192 267.254,7.192 C284.647,7.192 298.797,21.342 298.797,38.735 C298.797,56.129 284.647,70.278 267.254,70.278 L267.254,70.278 z" fill-opacity="0" stroke="#7D7D7D" stroke-width="3"/>
      </g>
      <path d="M249.549,35.368 L286.827,35.368 L286.827,43.97 L249.549,43.97 z" fill="#383838"/>
      <path d="M272.489,21.03 L272.489,58.308 L263.886,58.308 L263.886,21.03 z" fill="#383838"/>
    </g>
    <g>
      <g>
        <path d="M264.319,157.096 C245.307,157.096 229.842,141.631 229.842,122.619 C229.842,103.607 245.307,88.141 264.319,88.141 C283.331,88.141 298.797,103.607 298.797,122.619 C298.797,141.631 283.331,157.096 264.319,157.096 L264.319,157.096 z" fill="#515151"/>
        <path d="M264.319,157.096 C245.307,157.096 229.842,141.631 229.842,122.619 C229.842,103.607 245.307,88.141 264.319,88.141 C283.331,88.141 298.797,103.607 298.797,122.619 C298.797,141.631 283.331,157.096 264.319,157.096 L264.319,157.096 z" fill-opacity="0" stroke="#1C1C1C" stroke-width="3"/>
      </g>
      <path d="M245.013,118.985 L285.759,118.985 L285.759,128.387 L245.013,128.387 z" fill="#FDFDFD"/>
    </g>
    <text transform="matrix(1, 0, 0, 1, 108.43, 111.063)">
      <tspan x="-100.09" y="53" font-family="Helvetica" font-size="144" fill="#000000">0.0</tspan>
    </text>
    <text transform="matrix(1, 0, 0, 1, 111.366, 33.375)">
      <tspan x="-86.071" y="11.647" font-family="Helvetica" font-size="36" fill="#000000">Bed heigth</tspan>
    </text>
    <g>
      <g>
        <path d="M180.009,216.9 C180.009,219.687 177.54,221.945 174.492,221.945 L121.525,221.945 C118.477,221.945 116.009,219.687 116.009,216.9 L116.009,198.99 C116.009,196.203 118.477,193.945 121.525,193.945 L174.492,193.945 C177.539,193.945 180.009,196.203 180.009,198.99 L180.009,216.9 z" fill="#FFFFFF"/>
        <path d="M174.492,192.945 C178.073,192.945 181.009,195.63 181.008,198.99 L181.008,216.9 C181.009,220.26 178.073,222.945 174.492,222.945 L121.525,222.945 C117.944,222.945 115.009,220.26 115.008,216.9 L115.008,198.99 C115.009,195.63 117.944,192.945 121.525,192.945 L174.492,192.945 z M174.492,193.945 L121.525,193.945 C118.477,193.945 116.009,196.203 116.008,198.99 L116.008,216.9 C116.009,219.687 118.477,221.945 121.525,221.945 L174.492,221.945 C177.54,221.945 180.009,219.687 180.008,216.9 L180.008,198.99 C180.009,196.203 177.539,193.945 174.492,193.945 z" fill="#B8B8B8"/>
      </g>
      <text transform="matrix(1, 0, 0, 1, 148.009, 208.945)">
        <tspan x="-7.674" y="3" font-family="HelveticaNeue" font-size="12" fill="#4F4F4F">Ok</tspan>
      </text>
    </g>
  </g>
</svg>
