<?xml version="1.0" encoding="UTF-8"?>
<!DOCTYPE svg PUBLIC "-//W3C//DTD SVG 1.1//EN" "http://www.w3.org/Graphics/SVG/1.1/DTD/svg11.dtd">
<svg version="1.1" xmlns="http://www.w3.org/2000/svg" xmlns:xlink="http://www.w3.org/1999/xlink" x="0" y="0" width="320" height="240" viewBox="0, 0, 320, 240">
  <g id="Layer_1">
    <g>
      <g>
        <path d="M303,200.955 C303,203.742 300.531,206 297.483,206 L244.517,206 C241.469,206 239,203.742 239,200.955 L239,183.045 C239,180.258 241.469,178 244.517,178 L297.483,178 C300.531,178 303,180.258 303,183.045 L303,200.955 z" fill="#515151"/>
        <path d="M297.483,177 C301.064,177 304,179.685 304,183.045 L304,200.955 C304,204.315 301.064,207 297.483,207 L244.517,207 C240.936,207 238,204.315 238,200.955 L238,183.045 C238,179.685 240.936,177 244.517,177 L297.483,177 z M297.483,178 L244.517,178 C241.469,178 239,180.258 239,183.045 L239,200.955 C239,203.742 241.469,206 244.517,206 L297.483,206 C300.531,206 303,203.742 303,200.955 L303,183.045 C303,180.258 300.531,178 297.483,178 z" fill="#1C1C1C"/>
      </g>
      <text transform="matrix(1, 0, 0, 1, 271, 193)">
        <tspan x="-14.004" y="3" font-family="HelveticaNeue" font-size="12" fill="#FFFFFF">Send</tspan>
      </text>
    </g>
    <g>
      <path d="M35.5,43.5 L72.5,43.5 L72.5,206.5 L35.5,206.5 L35.5,43.5 z" fill="#FFFFFF"/>
      <path d="M35.5,43.5 L72.5,43.5 L72.5,206.5 L35.5,206.5 L35.5,43.5 z" fill-opacity="0" stroke="#000000" stroke-width="1"/>
    </g>
    <path d="M35.5,107.5 L72.5,107.5" fill-opacity="0" stroke="#8CC400" stroke-width="3"/>
    <path d="M35.5,115.5 L72.5,115.5" fill-opacity="0" stroke="#8CC400" stroke-width="3"/>
    <path d="M35.5,86.5 L72.5,86.5" fill-opacity="0" stroke="#8CC400" stroke-width="3"/>
    <path d="M35.5,137.5 L72.5,137.5" fill-opacity="0" stroke="#8CC400" stroke-width="3"/>
    <path d="M35.5,105.5 L97.5,105.5" fill-opacity="0" stroke="#990000" stroke-width="5"/>
    <text transform="matrix(1, 0, 0, 1, 23.944, 219)">
      <tspan x="-17.002" y="4" font-family="Helvetica" font-size="18" fill="#000000">0cm</tspan>
    </text>
    <text transform="matrix(1, 0, 0, 1, 29.967, 32)">
      <tspan x="-27.013" y="6" font-family="Helvetica" font-size="18" fill="#000000">100cm</tspan>
    </text>
    <text transform="matrix(1, 0, 0, 1, 203.648, 64.5)">
      <tspan x="-116.352" y="-9.5" font-family="Courier" font-size="36" fill="#000000">AVG: 88 cm</tspan>
      <tspan x="-116.352" y="33.5" font-family="Courier" font-size="36" fill="#000000">  N: 8</tspan>
    </text>
    <g>
      <g>
        <path d="M227,200.955 C227,203.742 224.531,206 221.483,206 L168.517,206 C165.469,206 163,203.742 163,200.955 L163,183.045 C163,180.258 165.469,178 168.517,178 L221.483,178 C224.531,178 227,180.258 227,183.045 L227,200.955 z" fill="#515151"/>
        <path d="M221.483,177 C225.064,177 228,179.685 228,183.045 L228,200.955 C228,204.315 225.064,207 221.483,207 L168.517,207 C164.936,207 162,204.315 162,200.955 L162,183.045 C162,179.685 164.936,177 168.517,177 L221.483,177 z M221.483,178 L168.517,178 C165.469,178 163,180.258 163,183.045 L163,200.955 C163,203.742 165.469,206 168.517,206 L221.483,206 C224.531,206 227,203.742 227,200.955 L227,183.045 C227,180.258 224.531,178 221.483,178 z" fill="#1C1C1C"/>
      </g>
      <text transform="matrix(1, 0, 0, 1, 195, 193)">
        <tspan x="-24.666" y="3" font-family="HelveticaNeue" font-size="12" fill="#FFFFFF">Delete all</tspan>
      </text>
    </g>
    <g>
      <g>
        <path d="M151.296,200.955 C151.296,203.742 148.827,206 145.779,206 L92.813,206 C89.765,206 87.296,203.742 87.296,200.955 L87.296,183.045 C87.296,180.258 89.765,178 92.813,178 L145.779,178 C148.827,178 151.296,180.258 151.296,183.045 L151.296,200.955 z" fill="#515151"/>
        <path d="M145.779,177 C149.36,177 152.296,179.685 152.296,183.045 L152.296,200.955 C152.296,204.315 149.36,207 145.779,207 L92.812,207 C89.232,207 86.296,204.315 86.296,200.955 L86.296,183.045 C86.296,179.685 89.232,177 92.812,177 L145.779,177 z M145.779,178 L92.812,178 C89.765,178 87.296,180.258 87.296,183.045 L87.296,200.955 C87.296,203.742 89.765,206 92.812,206 L145.779,206 C148.827,206 151.296,203.742 151.296,200.955 L151.296,183.045 C151.296,180.258 148.827,178 145.779,178 z" fill="#1C1C1C"/>
      </g>
      <text transform="matrix(1, 0, 0, 1, 119.296, 193)">
        <tspan x="-28.224" y="3" font-family="HelveticaNeue" font-size="12" fill="#FFFFFF">Delete last</tspan>
      </text>
    </g>
  </g>
</svg>
